PathFileType	4	(X/Y/Z)	./resultDataOpenSim/trcMotMarkerGrf/sub06/qtm-14-03.trc
DataRate	CameraRate	NumFrames	NumMarkers	Units	OrigDataRate	OrigDataStartFrame	OrigNumFrames
250.000000	250.000000	8	24	m	250.000000	204	542
Frame#	Time	L.Toe.Tip			R.Toe.Tip			L.Ankle.Lat			R.Ankle.Lat			L.Ankle.Med			R.Ankle.Med			L.Heel			R.Heel			L.Knee.Lat			R.Knee.Lat			L.Knee.Med			R.Knee.Med			L.Thigh.Upper			R.Thigh.Upper			L.ASIS			R.ASIS			V.Sacral			L.Acromium			R.Acromium			C7			L.Elbow			R.Elbow			L.Wrist.Lat			R.Wrist.Lat
		X1	Y1	Z1	X2	Y2	Z2	X3	Y3	Z3	X4	Y4	Z4	X5	Y5	Z5	X6	Y6	Z6	X7	Y7	Z7	X8	Y8	Z8	X9	Y9	Z9	X10	Y10	Z10	X11	Y11	Z11	X12	Y12	Z12	X13	Y13	Z13	X14	Y14	Z14	X15	Y15	Z15	X16	Y16	Z16	X17	Y17	Z17	X18	Y18	Z18	X19	Y19	Z19	X20	Y20	Z20	X21	Y21	Z21	X22	Y22	Z22	X23	Y23	Z23	X24	Y24	Z24

204	0.812	0.11346779	-0.040448453	-0.015871709	-0.19036492	0.11761962	0.10802657	-0.0040510763	-0.0059801677	-0.064668476	-0.23849534	0.24498498	0.12699021	-0.023251139	0.0096216779	0.019567373	-0.19839075	0.23930271	0.045442483	-0.085605876	-0.031884051	-0.037408929	-0.27935448	0.2778824	0.062934095	0.060188332	0.36410553	-0.074553906	0.090272604	0.40801029	0.18028398	0.019110572	0.36735947	0.038258262	0.079007313	0.39203437	0.046579753	-0.018641862	0.74193432	-0.16534152	-0.10420501	0.73296166	0.17210345	0.032077423	0.79708609	-0.10653941	-0.011954288	0.79895295	0.13656424	-0.1726563	0.86646676	-0.01733154	-0.010866969	1.2681201	-0.18594187	-0.05280162	1.2725988	0.16812245	-0.11827802	1.3015207	-0.021747448	-0.061858909	0.95697588	-0.24177129	-0.14539481	0.96964264	0.23710673	0.072765077	0.75596181	-0.28626967	0.029823065	0.79059907	0.27208698
205	0.816	0.11344323	-0.040445736	-0.015800689	-0.17155197	0.1178009	0.10961429	-0.004038994	-0.005934162	-0.064711146	-0.22294297	0.24378499	0.12793364	-0.023453531	0.0096993394	0.01946654	-0.18334134	0.23890249	0.045742617	-0.085610279	-0.031739404	-0.037420173	-0.26527827	0.27550186	0.063987342	0.061219566	0.36441002	-0.074410417	0.10302769	0.41381038	0.1786226	0.016655541	0.36763407	0.038644582	0.091052564	0.39791341	0.044904639	-0.013512932	0.74301758	-0.16479966	-0.099136724	0.73492852	0.17297183	0.037425225	0.79711224	-0.10598837	-0.0073950874	0.80119285	0.13767564	-0.16747855	0.8678971	-0.017639341	-0.0040743707	1.2696641	-0.18588306	-0.046681553	1.2734352	0.16803871	-0.11146835	1.302979	-0.021835531	-0.053871371	0.95773212	-0.24231967	-0.14087451	0.97028683	0.23734274	0.085449147	0.75919171	-0.28585983	0.032327077	0.79023109	0.27306863
206	0.82	0.11341773	-0.040451273	-0.015737764	-0.15262664	0.11792275	0.11118429	-0.0040359123	-0.0058646617	-0.064792051	-0.20733829	0.2424458	0.12888346	-0.023909012	0.009827756	0.019222591	-0.16824854	0.23824789	0.046136787	-0.085629587	-0.031560918	-0.037472743	-0.25125768	0.27287707	0.065114461	0.062218143	0.36468911	-0.074340296	0.11557214	0.41962178	0.17694432	0.014280697	0.3679963	0.038816934	0.10242015	0.40373805	0.043452439	-0.0086350399	0.74415725	-0.16416295	-0.093947036	0.73689512	0.17381971	0.042643313	0.79709527	-0.10549372	-0.0027029321	0.80329818	0.13874032	-0.16219721	0.86935468	-0.017574457	0.0027055171	1.2710987	-0.18590675	-0.040666324	1.27422	0.16803956	-0.10458437	1.3044621	-0.021905707	-0.04616219	0.95834236	-0.24280633	-0.13642105	0.97070975	0.23769312	0.098144807	0.76247336	-0.2853681	0.034717937	0.78986772	0.27410055
207	0.824	0.11338584	-0.040470325	-0.015698567	-0.1336374	0.11800485	0.11270397	-0.0040322261	-0.0057619467	-0.064911417	-0.19167285	0.24101203	0.12983098	-0.024335519	0.01004087	0.01893976	-0.15308049	0.23734224	0.046578318	-0.08565525	-0.031332485	-0.037565523	-0.2372605	0.2699883	0.066311924	0.063170616	0.36489554	-0.074325453	0.12792653	0.42543286	0.17525714	0.012593463	0.36839885	0.03873354	0.11344373	0.40956304	0.042175844	-0.0038984655	0.745278	-0.16351804	-0.08842959	0.73887559	0.17459632	0.047742765	0.79704912	-0.10506711	0.0021649321	0.80526536	0.1397328	-0.15691327	0.87082434	-0.017208319	0.0094984199	1.2724184	-0.18601218	-0.034755054	1.2749492	0.16812953	-0.097643404	1.3059523	-0.021961551	-0.03848331	0.95886679	-0.24320301	-0.13200088	0.97100214	0.23814032	0.1108371	0.76581335	-0.28478703	0.03703569	0.78949362	0.27517503
208	0.828	0.11334756	-0.040497839	-0.015689313	-0.1145509	0.11807523	0.11419818	-0.0040215198	-0.0056146	-0.065059929	-0.17592847	0.23946038	0.13077294	-0.0244962	0.010367176	0.018692213	-0.13782009	0.23619536	0.047045512	-0.085675176	-0.031045409	-0.037684345	-0.22320283	0.26682024	0.067578533	0.064047088	0.36501525	-0.074363151	0.14005132	0.43122815	0.17360842	0.011936403	0.36873381	0.038542896	0.12441422	0.41541604	0.040985761	0.00078274471	0.74635193	-0.1629275	-0.082364668	0.74090888	0.17531803	0.052806816	0.79702476	-0.10470426	0.0072473595	0.80710519	0.14062141	-0.15162811	0.87228613	-0.01667408	0.016303352	1.2736267	-0.18617771	-0.028948526	1.2756258	0.16830127	-0.090667545	1.3074345	-0.0220059	-0.030621571	0.9593743	-0.24353734	-0.12759588	0.97127262	0.23866708	0.12350521	0.76922862	-0.28411568	0.039306078	0.78910483	0.2762722
209	0.832	0.11330569	-0.040524375	-0.015706528	-0.09529848	0.1181531	0.1157038	-0.0040024195	-0.0054150388	-0.065220483	-0.1601134	0.23773294	0.1317036	-0.024342299	0.01080648	0.018494057	-0.12248646	0.23484103	0.047552968	-0.085679451	-0.030701288	-0.037806243	-0.20894744	0.26335527	0.068836865	0.064822158	0.36506893	-0.074471887	0.15188273	0.43698929	0.17205344	0.012197685	0.36895675	0.038374402	0.13537576	0.42128449	0.039838106	0.00536118	0.74737274	-0.16242649	-0.075694165	0.74301401	0.17604057	0.057897583	0.79707794	-0.10439894	0.01256683	0.80883987	0.14137729	-0.14629119	0.87370252	-0.016146658	0.023105182	1.2747334	-0.18638089	-0.023231683	1.2762608	0.16854916	-0.083684299	1.3088982	-0.022034423	-0.022571364	0.95987798	-0.24383724	-0.12319075	0.97163628	0.239259	0.13612189	0.77274126	-0.28336022	0.04150092	0.78870606	0.27736664
210	0.836	0.1132522	-0.040551303	-0.015760219	-0.075886142	0.1182244	0.11720357	-0.0039753281	-0.0051648558	-0.065373441	-0.14424282	0.23579807	0.13263008	-0.024006406	0.011321414	0.018332992	-0.10709858	0.23332012	0.048134519	-0.085661948	-0.030311864	-0.037904606	-0.1943299	0.25958054	0.06994075	0.065506228	0.3651027	-0.074674521	0.16339943	0.44269675	0.17060149	0.012951091	0.36912557	0.038238659	0.14618224	0.42713301	0.038751649	0.0096511855	0.74832518	-0.16208962	-0.068590138	0.74516669	0.17685813	0.062970744	0.79722007	-0.10416332	0.018122608	0.81048927	0.14197238	-0.14084523	0.87502489	-0.015660573	0.029889418	1.2757513	-0.18660721	-0.01756108	1.27686	0.1688779	-0.076718167	1.3103343	-0.022041772	-0.014460974	0.9603478	-0.24411235	-0.1187703	0.97219566	0.23990969	0.14866203	0.77636496	-0.28253293	0.043580963	0.78830811	0.27843383
211	0.84	0.11318995	-0.040581214	-0.015853289	-0.056410212	0.11823731	0.11862837	-0.0039370913	-0.0048738935	-0.065503877	-0.12831062	0.23366095	0.1335739	-0.023676743	0.011859502	0.018191992	-0.091635221	0.2316572	0.048816201	-0.085620812	-0.029889759	-0.037955992	-0.17927762	0.25552643	0.070813304	0.066144423	0.36515907	-0.074973163	0.17463293	0.44833238	0.16920751	0.013844575	0.36932094	0.038099636	0.15665753	0.43291917	0.037770096	0.013449164	0.74918324	-0.16203815	-0.061337068	0.74731154	0.17787994	0.067919478	0.79741929	-0.10401956	0.02389102	0.81206148	0.1423769	-0.13527878	0.87624342	-0.015003822	0.03664321	1.276693	-0.18684659	-0.011871465	1.277418	0.16928939	-0.069783525	1.3117344	-0.022027745	-0.0064008341	0.96074746	-0.24438056	-0.11432491	0.9730137	0.24062004	0.16111168	0.78009392	-0.28165081	0.045534693	0.78792391	0.27945635
